<?xml version="1.0" standalone="no"?>
<!DOCTYPE svg PUBLIC "-//W3C//DTD SVG 20010904//EN"
 "http://www.w3.org/TR/2001/REC-SVG-20010904/DTD/svg10.dtd">
<svg version="1.0" xmlns="http://www.w3.org/2000/svg"
 width="800.000000pt" height="800.000000pt" viewBox="0 0 800.000000 800.000000"
 preserveAspectRatio="xMidYMid meet">
<metadata>
Created by potrace 1.14, written by Peter Selinger 2001-2017
</metadata>
<g transform="translate(0.000000,800.000000) scale(0.100000,-0.100000)"
fill="#000000" stroke="none">
<path d="M0 4000 l0 -4000 4000 0 4000 0 0 4000 0 4000 -4000 0 -4000 0 0
-4000z m6444 2695 c143 -38 267 -132 319 -244 25 -53 31 -80 35 -162 4 -83 1
-109 -18 -169 -30 -94 -67 -150 -134 -202 -77 -61 -142 -83 -241 -83 -167 0
-264 85 -265 230 0 117 50 237 127 305 24 21 43 40 43 44 0 3 -18 6 -41 6 -89
0 -118 -50 -174 -300 -61 -272 -205 -991 -205 -1022 l0 -28 325 0 325 0 16
-25 c13 -20 15 -37 10 -78 -11 -83 -46 -204 -64 -220 -14 -12 -80 -15 -346
-20 -180 -3 -330 -8 -333 -11 -6 -6 -42 -188 -224 -1121 -166 -855 -162 -838
-286 -1285 -151 -543 -335 -846 -603 -993 -198 -109 -443 -83 -604 64 -216
197 -158 583 104 708 48 23 68 26 155 26 114 0 158 -17 212 -79 43 -48 57 -97
50 -170 -12 -121 -68 -235 -142 -285 -19 -13 -35 -27 -35 -32 0 -5 22 -9 49
-9 34 0 56 6 75 21 55 43 97 163 131 379 23 145 84 434 143 685 55 231 89 381
97 435 3 19 12 63 20 96 8 34 66 335 129 670 64 335 128 673 144 752 l29 142
-21 1 c-11 0 -131 4 -266 8 -291 9 -306 13 -303 79 3 61 41 203 62 232 l18 25
289 3 289 2 59 293 c142 709 231 952 416 1137 89 89 173 141 300 186 81 28
243 32 334 9z m-1990 -66 c18 -14 25 -27 21 -42 -50 -234 -438 -1809 -749
-3037 -141 -558 -145 -578 -146 -680 0 -96 2 -108 24 -135 21 -26 31 -30 74
-30 42 0 56 5 81 29 61 59 125 208 196 459 27 92 53 174 59 183 15 19 143 30
240 20 59 -7 67 -10 72 -32 14 -53 -67 -321 -151 -501 -157 -335 -363 -482
-625 -445 -101 14 -174 41 -244 87 -67 44 -143 125 -176 187 l-24 46 -80 -66
c-158 -128 -272 -189 -437 -234 -126 -34 -295 -32 -403 6 -138 47 -227 108
-327 223 -258 294 -308 767 -138 1287 97 297 255 544 500 781 255 247 565 395
825 395 183 0 295 -39 405 -138 36 -33 64 -51 69 -46 10 10 164 610 240 936
28 117 50 235 50 261 0 45 -2 49 -33 62 -39 16 -176 35 -257 35 -66 0 -123 15
-141 36 -11 13 -8 35 15 128 15 62 36 126 46 143 22 36 7 34 380 59 129 8 305
21 390 28 216 19 214 19 244 -5z"/>
<path d="M2900 4828 c-117 -41 -239 -144 -330 -278 -104 -153 -171 -347 -304
-875 -118 -471 -132 -657 -62 -810 46 -102 126 -156 238 -163 188 -12 382 120
586 396 34 46 66 100 71 120 6 20 74 291 151 602 l141 564 -20 95 c-38 174
-117 298 -219 344 -71 31 -172 33 -252 5z"/>
</g>
</svg>
