<svg width="15" height="15" viewBox="0 0 15 15" fill="none" xmlns="http://www.w3.org/2000/svg">
<path d="M2.81836 12.1113C2.51758 12.1113 2.23047 12.0488 1.95703 11.9238C1.6875 11.7988 1.45117 11.6055 1.24805 11.3437C1.04492 11.082 0.882812 10.748 0.761719 10.3418C0.644531 9.93555 0.585937 9.45117 0.585937 8.88867C0.585937 8.32617 0.644531 7.8418 0.761719 7.43555C0.882812 7.0293 1.04492 6.69531 1.24805 6.43359C1.45117 6.17187 1.6875 5.97852 1.95703 5.85352C2.23047 5.72852 2.51758 5.66602 2.81836 5.66602C2.9707 5.66602 3.11719 5.68555 3.25781 5.72461C3.39844 5.76367 3.53125 5.82031 3.65625 5.89453V2.66602H4.69922V12.1348L3.99023 11.6309C3.83398 11.7871 3.65625 11.9062 3.45703 11.9883C3.25781 12.0703 3.04492 12.1113 2.81836 12.1113ZM2.88867 11.127C3.03711 11.127 3.17578 11.1016 3.30469 11.0508C3.43359 11 3.55078 10.9277 3.65625 10.834V6.94922C3.4375 6.75 3.18164 6.65039 2.88867 6.65039C2.72852 6.65039 2.57422 6.68555 2.42578 6.75586C2.27734 6.82617 2.14453 6.94727 2.02734 7.11914C1.91406 7.28711 1.82227 7.51562 1.75195 7.80469C1.68164 8.08984 1.64648 8.45117 1.64648 8.88867C1.64648 9.32617 1.68164 9.68945 1.75195 9.97852C1.82227 10.2637 1.91406 10.4922 2.02734 10.6641C2.14453 10.832 2.27734 10.9512 2.42578 11.0215C2.57422 11.0918 2.72852 11.127 2.88867 11.127ZM8.51953 6.76172H6.49805V5.77734H10.0957L7.64062 11.0156H9.91406V12H6.07031L8.51953 6.76172ZM11.4668 6.76172H10.9922V5.77734H11.4668V5.42578C11.4668 5.02344 11.5156 4.65039 11.6133 4.30664C11.7148 3.96289 11.8574 3.66406 12.041 3.41016C12.2285 3.15234 12.4512 2.94922 12.709 2.80078C12.9707 2.64844 13.2637 2.56641 13.5879 2.55469V3.58008C13.4043 3.60742 13.2441 3.67383 13.1074 3.7793C12.9707 3.88086 12.8574 4.01367 12.7676 4.17773C12.6816 4.3418 12.6172 4.53125 12.5742 4.74609C12.5312 4.96094 12.5098 5.19141 12.5098 5.4375V5.77734H13.5527V6.76172H12.5098V12H11.4668V6.76172Z" fill="#BBA768"/>
</svg>
